# xmcd
#
# Track frame offsets: 
#        150
#        17380
#        33468
#        47415
#        59487
#        72816
#        86035
#        101760
#        114505
#        125773
#        140105
#        155023
#        166793
#        182407
#        199554
#        216729
#
# Disc length: 3160 seconds
#
# Revision: 1
# Processed by: cddbd v1.5PL3 Copyright (c) Steve Scherf et al.
# Submitted via: ExactAudioCopy v0.90b4
#
DISCID=e40c5610
DTITLE=Emmylou Harris Feat. Carl Jackson - Love Hurts
DYEAR=1999
DGENRE=Country
TTITLE0=Gone, Gone, Gone
TTITLE1=Something Else To Keep Your Memory Green
TTITLE2=Under Your Spell Again
TTITLE3=Walk Through This World With Me
TTITLE4=I'll Never Love Another
TTITLE5=Something Draws Me To You
TTITLE6=When My Blue Moon Turns To Gold Again
TTITLE7=You Made A Memory Of Me
TTITLE8=I Take The Chance
TTITLE9=Before I Met You
TTITLE10=Always Needed You
TTITLE11=We Must Have Been Out Of Our Minds
TTITLE12=Dyin' On Sorrow's Wine
TTITLE13=The Best We Could Do
TTITLE14=Nobody's Darling But Mine
TTITLE15=Love Hurts
EXTD=
EXTT0=
EXTT1=
EXTT2=
EXTT3=
EXTT4=
EXTT5=
EXTT6=
EXTT7=
EXTT8=
EXTT9=
EXTT10=
EXTT11=
EXTT12=
EXTT13=
EXTT14=
EXTT15=
PLAYORDER=
